<?xml version="1.0" standalone="no"?>
<!DOCTYPE svg PUBLIC "-//W3C//DTD SVG 20010904//EN"
 "http://www.w3.org/TR/2001/REC-SVG-20010904/DTD/svg10.dtd">
<svg version="1.0" xmlns="http://www.w3.org/2000/svg"
 width="512.000000pt" height="512.000000pt" viewBox="0 0 512.000000 512.000000"
 preserveAspectRatio="xMidYMid meet">
<metadata>
Created by potrace 1.11, written by Peter Selinger 2001-2013
</metadata>
<g transform="translate(0.000000,512.000000) scale(0.100000,-0.100000)"
fill="#000000" stroke="none">
<path d="M2500 5107 c-37 -14 -1703 -971 -1973 -1135 -94 -57 -167 -108 -180
-126 l-22 -31 -3 -1239 c-2 -1234 -2 -1239 18 -1282 12 -23 35 -53 53 -66 18
-13 495 -292 1062 -618 750 -433 1042 -597 1078 -604 47 -10 51 -9 156 46 131
68 1993 1142 2038 1176 18 13 41 43 52 66 21 42 21 53 21 1258 0 668 -3 1230
-7 1248 -10 51 -65 98 -223 188 -157 90 -175 93 -218 46 -16 -19 -20 -32 -16
-52 10 -41 18 -47 135 -114 60 -34 106 -65 101 -69 -9 -9 -562 -329 -568 -329
-16 0 -562 326 -556 331 7 7 563 329 567 329 2 0 38 -20 81 -45 86 -49 111
-54 143 -27 33 27 37 74 9 105 -25 27 -1569 922 -1628 944 -44 15 -76 15 -120
0z m355 -305 l274 -159 -290 -167 -289 -168 -285 165 -284 164 277 161 c152
88 287 161 300 161 12 1 146 -70 297 -157z m716 -414 c220 -127 277 -164 267
-173 -7 -7 -136 -83 -287 -169 l-273 -158 -197 113 c-108 63 -236 137 -284
165 l-88 51 288 167 c158 91 289 166 291 166 1 0 128 -73 283 -162z m-1460 -9
c154 -89 278 -163 277 -164 -19 -15 -554 -318 -563 -319 -15 -1 -554 306 -555
316 0 4 6 12 13 18 21 20 521 308 535 309 7 1 139 -72 293 -160z m728 -421
l280 -161 -285 -164 -284 -165 -285 165 -285 164 278 161 c152 88 283 161 289
161 7 1 138 -72 292 -161z m-1381 -43 c178 -103 201 -119 185 -129 -10 -7 -71
-43 -136 -80 -100 -58 -121 -66 -132 -55 -28 29 -87 151 -105 216 -21 79 -35
177 -23 170 4 -2 99 -57 211 -122z m653 -376 c154 -89 278 -163 277 -164 -2
-1 -83 -49 -182 -105 l-178 -103 -91 44 c-160 78 -357 208 -424 280 l-22 24
157 91 c86 51 163 92 170 93 7 1 139 -72 293 -160z m1444 6 c148 -86 273 -159
278 -164 4 -4 -119 -81 -274 -170 l-281 -162 -197 112 c-108 63 -236 137 -284
165 l-88 51 278 161 c153 89 283 161 288 161 6 1 132 -69 280 -154z m-2965 46
c3 -3 19 -13 35 -21 17 -8 32 -17 35 -20 3 -3 31 -18 62 -35 32 -16 58 -33 58
-36 0 -3 16 -11 35 -19 19 -8 35 -17 35 -21 0 -4 6 -9 13 -11 6 -2 49 -23 94
-48 l83 -45 0 -328 c0 -259 -3 -327 -12 -323 -7 3 -21 9 -30 12 -10 4 -18 10
-18 15 0 5 -4 9 -9 9 -9 0 -173 89 -181 99 -3 3 -18 13 -35 21 -16 8 -32 17
-35 20 -3 3 -31 19 -62 35 -32 17 -58 33 -58 36 0 3 -16 11 -35 19 -19 8 -35
16 -35 19 0 4 -13 12 -30 19 l-30 14 0 330 0 329 58 -32 c31 -18 59 -35 62
-38z m4056 -576 c-4 -10 -138 -92 -276 -168 -30 -17 -72 -41 -93 -54 -22 -14
-60 -36 -85 -50 -26 -14 -62 -34 -79 -45 l-33 -20 0 331 c0 201 4 331 9 331 6
0 61 30 123 66 62 37 138 80 168 97 30 17 73 42 95 55 22 14 65 39 95 55 30
16 60 34 65 39 10 9 21 -613 11 -637z m-1802 100 c276 -159 276 -159 249 -174
-64 -33 -523 42 -800 131 l-73 23 158 92 c86 51 164 91 173 90 9 -1 141 -74
293 -162z m-1596 98 c26 -15 49 -30 52 -33 3 -4 20 -13 38 -21 17 -8 32 -17
32 -21 0 -5 4 -8 9 -8 9 0 173 -89 181 -99 3 -3 19 -13 35 -21 17 -8 32 -17
35 -20 3 -3 32 -20 65 -37 l60 -32 3 -325 c1 -209 -1 -326 -8 -326 -5 0 -26
10 -47 21 -85 47 -128 73 -133 79 -3 4 -20 13 -37 21 -18 8 -33 17 -33 21 0 5
-4 8 -9 8 -9 0 -173 89 -181 99 -3 3 -18 13 -35 21 -16 8 -32 17 -35 20 -3 3
-14 10 -25 16 -19 11 -20 23 -23 338 -1 179 0 326 4 326 3 0 26 -12 52 -27z
m2682 -297 l0 -324 -97 -56 c-54 -31 -109 -62 -123 -70 -295 -173 -336 -196
-344 -196 -3 0 -6 145 -6 323 l0 322 87 50 c47 28 109 63 137 79 28 16 94 54
146 84 89 52 192 110 198 111 1 1 2 -145 2 -323z m-1920 -146 c3 -4 20 -13 38
-21 17 -8 32 -17 32 -21 0 -5 5 -8 11 -8 7 0 45 -20 87 -45 41 -25 78 -45 83
-45 5 0 9 -3 9 -8 0 -4 15 -14 32 -21 18 -8 64 -33 103 -56 l70 -42 2 -334 c2
-184 0 -329 -5 -324 -4 6 -20 17 -37 25 -16 8 -32 17 -35 20 -3 3 -31 19 -62
35 -32 17 -58 33 -58 36 0 3 -16 11 -35 19 -19 8 -35 17 -35 22 0 4 -4 8 -9 8
-10 0 -174 90 -181 100 -3 4 -20 13 -37 21 -18 8 -33 17 -33 20 0 4 -9 9 -20
12 -19 5 -20 14 -20 336 l0 332 48 -28 c26 -15 49 -30 52 -33z m2640 -267 l0
-328 -38 -21 c-20 -11 -64 -36 -97 -54 -33 -18 -82 -47 -110 -65 -27 -17 -57
-34 -65 -37 -8 -3 -68 -38 -134 -77 -65 -39 -120 -71 -122 -71 -2 0 -4 146 -4
324 l0 324 73 43 c39 24 92 54 116 67 24 13 78 44 120 69 42 25 101 59 131 76
30 17 71 41 90 53 19 13 36 23 38 23 1 1 2 -146 2 -326z m-4111 285 c31 -17
58 -34 61 -37 3 -3 19 -13 35 -21 17 -8 32 -17 35 -20 3 -3 31 -18 62 -35 32
-16 58 -33 58 -36 0 -3 16 -11 35 -19 19 -8 35 -16 35 -19 0 -4 15 -13 33 -20
17 -8 58 -30 90 -49 l57 -34 0 -134 c0 -121 2 -136 20 -154 12 -12 33 -20 55
-20 61 0 75 25 75 131 l0 90 58 -32 c31 -18 59 -36 62 -39 3 -4 20 -13 38 -21
17 -8 32 -17 32 -21 0 -5 4 -8 9 -8 9 0 172 -89 181 -99 3 -3 28 -18 55 -33
28 -14 69 -37 92 -50 l43 -23 0 -327 c0 -181 -2 -328 -4 -328 -7 0 -130 73
-136 80 -3 4 -20 13 -37 21 -18 8 -33 17 -33 21 0 5 -4 8 -9 8 -10 0 -173 90
-181 100 -3 3 -18 12 -35 20 -16 8 -54 29 -82 45 l-53 30 0 135 c0 159 -10
182 -75 182 -60 0 -75 -27 -75 -139 l0 -92 -62 37 c-35 20 -65 39 -68 42 -3 4
-20 13 -37 21 -18 8 -33 17 -33 21 0 5 -4 8 -9 8 -9 0 -173 89 -181 99 -3 3
-18 13 -35 21 -16 8 -32 17 -35 20 -3 3 -27 17 -55 32 l-50 27 -3 325 c-1 179
1 326 4 326 4 0 32 -14 63 -32z m2661 -292 l0 -324 -77 -45 c-135 -77 -257
-148 -273 -157 -8 -5 -49 -28 -90 -51 -41 -23 -85 -49 -97 -57 l-23 -14 0 324
0 324 73 42 c39 24 79 47 87 52 23 14 245 141 301 172 27 15 49 26 49 23 0 -3
9 4 20 15 11 11 22 20 25 20 3 0 5 -146 5 -324z m730 -410 l0 -324 -37 -22
c-21 -13 -63 -36 -93 -53 -30 -17 -77 -44 -105 -61 -27 -17 -61 -37 -75 -44
-14 -6 -32 -16 -40 -22 -54 -34 -204 -120 -212 -120 -4 0 -8 145 -8 323 l0
322 58 33 c104 59 146 83 217 125 39 23 81 48 95 54 14 7 32 17 40 23 18 12
154 90 158 90 1 0 2 -146 2 -324z m-3413 -117 c85 -47 128 -73 133 -79 3 -4
20 -13 38 -21 17 -8 32 -17 32 -21 0 -5 4 -8 9 -8 9 0 173 -89 181 -99 3 -3
19 -13 35 -21 17 -8 32 -17 35 -20 3 -3 17 -11 33 -17 l27 -13 0 -320 c0 -176
-3 -320 -6 -320 -8 0 -117 61 -124 69 -3 3 -18 13 -35 21 -39 20 -149 83 -155
90 -3 3 -18 12 -35 20 -16 8 -32 17 -35 20 -3 3 -18 12 -35 20 -16 8 -56 30
-87 48 l-57 34 -1 319 c0 175 2 319 4 319 3 0 22 -10 43 -21z m1451 -6 c26
-15 49 -30 52 -33 3 -4 20 -13 38 -21 17 -8 32 -17 32 -21 0 -5 4 -8 9 -8 9 0
173 -89 181 -99 3 -3 19 -13 35 -21 17 -8 32 -17 35 -20 3 -3 32 -20 65 -37
l60 -32 3 -325 c1 -179 -1 -326 -4 -326 -8 0 -137 71 -144 79 -3 3 -18 13 -35
21 -16 8 -32 17 -35 20 -3 3 -30 18 -60 34 -30 16 -57 32 -60 35 -3 3 -18 13
-35 21 -16 8 -32 17 -35 20 -3 3 -25 16 -50 29 -25 13 -60 33 -77 43 l-33 20
0 324 c0 178 3 324 6 324 3 0 26 -12 52 -27z m1232 -303 c0 -181 -4 -330 -8
-330 -7 0 -134 -70 -202 -110 -30 -18 -253 -146 -301 -172 l-49 -28 0 321 c0
320 0 321 23 340 12 10 26 18 30 19 4 0 60 30 123 68 63 37 127 73 142 81 15
8 45 26 67 40 22 14 60 36 85 50 25 13 54 30 65 37 11 8 21 14 22 14 2 0 3
-148 3 -330z m1450 15 c0 -239 -3 -317 -12 -325 -13 -11 -170 -103 -278 -163
-30 -17 -79 -45 -108 -64 -29 -18 -55 -33 -59 -33 -3 0 -28 -13 -55 -30 -26
-16 -50 -30 -53 -30 -3 0 -5 144 -5 319 l0 319 38 22 c20 13 62 36 92 53 30
17 79 45 108 64 29 18 56 33 60 33 4 1 61 34 127 74 66 41 126 74 133 75 9 1
12 -68 12 -314z m-3410 -127 c0 -5 4 -8 9 -8 9 0 173 -89 181 -99 3 -3 19 -13
35 -21 39 -20 149 -83 155 -90 3 -3 19 -12 35 -20 17 -8 32 -17 35 -20 3 -3
19 -13 35 -22 l30 -17 3 -320 2 -321 -35 17 c-19 9 -35 20 -35 23 0 3 -16 12
-35 20 -19 8 -35 17 -35 22 0 4 -4 8 -9 8 -10 0 -174 90 -181 100 -3 4 -20 13
-37 21 -18 8 -33 17 -33 21 0 3 -6 8 -12 10 -7 2 -46 21 -85 43 l-73 39 0 322
0 322 25 -11 c14 -7 25 -15 25 -19z m2690 -287 l0 -320 -29 -20 c-16 -12 -32
-21 -35 -21 -4 0 -48 -25 -98 -55 -50 -30 -93 -55 -95 -55 -2 0 -59 -33 -126
-72 -67 -40 -137 -80 -154 -90 l-33 -18 0 323 0 324 28 14 c15 7 77 42 137 78
61 35 133 76 160 91 28 15 91 52 140 83 50 30 93 55 98 56 4 1 7 -143 7 -318z
m-1980 -122 c0 -5 4 -9 9 -9 9 0 173 -89 181 -99 3 -3 19 -13 35 -21 39 -20
149 -83 155 -90 3 -3 19 -12 35 -20 17 -8 32 -17 35 -20 3 -3 22 -14 43 -25
l37 -20 0 -322 0 -322 -37 21 c-21 12 -40 25 -43 28 -3 4 -20 13 -37 21 -18 8
-33 17 -33 21 0 5 -4 8 -9 8 -9 0 -173 89 -181 99 -3 3 -18 13 -35 21 -16 8
-32 17 -35 20 -3 3 -25 16 -50 29 -25 13 -60 33 -77 43 l-33 20 0 318 c0 313
0 318 20 313 11 -3 20 -9 20 -14z m1250 -299 l-1 -320 -77 -46 c-42 -25 -84
-49 -92 -54 -53 -32 -263 -151 -321 -183 l-69 -38 0 318 0 318 83 48 c45 26
89 52 97 57 8 5 67 39 130 75 63 36 122 70 130 75 48 29 115 70 118 70 1 0 2
-144 2 -320z"/>
</g>
</svg>
